<mxfile host="65bd71144e">
    <diagram id="nkOhd-C2uClc8Hb0o4sY" name="Page-1">
        <mxGraphModel dx="749" dy="703" grid="1" gridSize="10" guides="1" tooltips="1" connect="1" arrows="1" fold="1" page="1" pageScale="1" pageWidth="827" pageHeight="1169" math="0" shadow="0">
            <root>
                <mxCell id="0"/>
                <mxCell id="1" parent="0"/>
                <mxCell id="2" value="" style="shape=actor;whiteSpace=wrap;html=1;" parent="1" vertex="1">
                    <mxGeometry x="160" y="110" width="40" height="60" as="geometry"/>
                </mxCell>
                <mxCell id="7" value="Registro Usuario" style="shape=umlLifeline;perimeter=lifelinePerimeter;whiteSpace=wrap;html=1;container=1;collapsible=0;recursiveResize=0;outlineConnect=0;shadow=0;strokeColor=default;" parent="1" vertex="1">
                    <mxGeometry x="440" y="170" width="100" height="300" as="geometry"/>
                </mxCell>
                <mxCell id="8" value="" style="html=1;points=[];perimeter=orthogonalPerimeter;fillColor=#009900;shadow=0;strokeColor=default;" parent="7" vertex="1">
                    <mxGeometry x="45" y="90" width="10" height="180" as="geometry"/>
                </mxCell>
                <mxCell id="9" value="USUARIO" style="shape=umlLifeline;perimeter=lifelinePerimeter;whiteSpace=wrap;html=1;container=1;collapsible=0;recursiveResize=0;outlineConnect=0;shadow=0;strokeColor=default;" parent="1" vertex="1">
                    <mxGeometry x="140" y="180" width="100" height="300" as="geometry"/>
                </mxCell>
                <mxCell id="10" value="" style="html=1;points=[];perimeter=orthogonalPerimeter;shadow=0;strokeColor=default;fillColor=#006600;" parent="9" vertex="1">
                    <mxGeometry x="45" y="90" width="10" height="180" as="geometry"/>
                </mxCell>
                <mxCell id="11" value="" style="endArrow=block;startArrow=none;endFill=0;startFill=0;endSize=8;html=1;verticalAlign=bottom;dashed=1;labelBackgroundColor=none;" parent="1" edge="1">
                    <mxGeometry width="160" relative="1" as="geometry">
                        <mxPoint x="200" y="300" as="sourcePoint"/>
                        <mxPoint x="470" y="300" as="targetPoint"/>
                    </mxGeometry>
                </mxCell>
                <mxCell id="15" value="" style="endArrow=block;startArrow=none;endFill=0;startFill=0;endSize=8;html=1;verticalAlign=bottom;dashed=1;labelBackgroundColor=none;entryX=0.125;entryY=-0.017;entryDx=0;entryDy=0;entryPerimeter=0;" parent="1" source="7" target="16" edge="1">
                    <mxGeometry width="160" relative="1" as="geometry">
                        <mxPoint x="210" y="310" as="sourcePoint"/>
                        <mxPoint x="250" y="320" as="targetPoint"/>
                    </mxGeometry>
                </mxCell>
                <mxCell id="16" value="Se crea la cuenta correcatmente" style="text;html=1;align=center;verticalAlign=middle;resizable=0;points=[];autosize=1;strokeColor=none;fillColor=none;" parent="1" vertex="1">
                    <mxGeometry x="200" y="320" width="200" height="30" as="geometry"/>
                </mxCell>
                <mxCell id="18" value="Se carga el formulario de registro" style="text;html=1;align=center;verticalAlign=middle;resizable=0;points=[];autosize=1;strokeColor=none;fillColor=none;" parent="1" vertex="1">
                    <mxGeometry x="214" y="260" width="200" height="30" as="geometry"/>
                </mxCell>
                <mxCell id="22" value="Menu Principal" style="shape=umlLifeline;perimeter=lifelinePerimeter;whiteSpace=wrap;html=1;container=1;collapsible=0;recursiveResize=0;outlineConnect=0;shadow=0;strokeColor=default;" parent="1" vertex="1">
                    <mxGeometry x="630" y="170" width="100" height="300" as="geometry"/>
                </mxCell>
                <mxCell id="23" value="" style="html=1;points=[];perimeter=orthogonalPerimeter;fillColor=#009900;shadow=0;strokeColor=default;" parent="22" vertex="1">
                    <mxGeometry x="45" y="90" width="10" height="180" as="geometry"/>
                </mxCell>
                <mxCell id="24" value="" style="endArrow=block;startArrow=none;endFill=0;startFill=0;endSize=8;html=1;verticalAlign=bottom;dashed=1;labelBackgroundColor=none;" parent="1" edge="1">
                    <mxGeometry width="160" relative="1" as="geometry">
                        <mxPoint x="217" y="390" as="sourcePoint"/>
                        <mxPoint x="667" y="390" as="targetPoint"/>
                    </mxGeometry>
                </mxCell>
                <mxCell id="25" value="El usuario es redireccionado al menu de la aplicacion" style="text;html=1;align=center;verticalAlign=middle;resizable=0;points=[];autosize=1;strokeColor=none;fillColor=none;" parent="1" vertex="1">
                    <mxGeometry x="185" y="365" width="310" height="30" as="geometry"/>
                </mxCell>
            </root>
        </mxGraphModel>
    </diagram>
</mxfile>